HIERARCHY
ROOT Hips
{
	OFFSET 0.000000 35.082581 0.000000
	CHANNELS 6 Xposition Yposition Zposition Xrotation Yrotation Zrotation 
	JOINT Spine
	{
		OFFSET 0.000000 6.876099 0.125700
		CHANNELS 3 Xrotation Yrotation Zrotation
		JOINT Spine1
		{
			OFFSET 0.000000 5.730043 0.104720
			CHANNELS 3 Xrotation Yrotation Zrotation
			JOINT Spine1_split
			{
				OFFSET 0.000000 5.730043 0.104720
				CHANNELS 3 Xrotation Yrotation Zrotation
				JOINT Spine2
				{
					OFFSET 0.000000 5.730043 0.104720
					CHANNELS 3 Xrotation Yrotation Zrotation
					JOINT Neck
					{
						OFFSET 0.000000 10.314075 0.188496
						CHANNELS 3 Xrotation Yrotation Zrotation
						JOINT Head
						{
							OFFSET 0.000000 7.643700 -2.377400
							CHANNELS 3 Xrotation Yrotation Zrotation
							JOINT HeadTop_End
							{
								OFFSET 0.000000 43.788605 -13.619600
								CHANNELS 3 Xrotation Yrotation Zrotation
								End Site
								{
									OFFSET 0.000000 0.000000 0.000000
								}
							}
						}
					}
					JOINT LeftShoulder
					{
						OFFSET 2.196100 4.412489 0.087492
						CHANNELS 3 Xrotation Yrotation Zrotation
						JOINT LeftShoulder_split
						{
							OFFSET 2.196100 4.412489 0.087492
							CHANNELS 3 Xrotation Yrotation Zrotation
							JOINT LeftArm
							{
								OFFSET 8.771219 -2.981674 -0.026999
								CHANNELS 3 Xrotation Yrotation Zrotation
								JOINT LeftForeArm
								{
									OFFSET 8.512804 0.000000 -0.000000
									CHANNELS 3 Xrotation Yrotation Zrotation
									JOINT LeftHand
									{
										OFFSET 18.484802 0.000000 -0.000000
										CHANNELS 3 Xrotation Yrotation Zrotation
										JOINT LeftHandThumb1
										{
											OFFSET 2.499420 -1.158070 2.653252
											CHANNELS 3 Xrotation Yrotation Zrotation
											JOINT LeftHandThumb2
											{
												OFFSET 2.370079 -1.368366 1.368366
												CHANNELS 3 Xrotation Yrotation Zrotation
												JOINT LeftHandThumb3
												{
													OFFSET 2.676727 -1.545410 1.545409
													CHANNELS 3 Xrotation Yrotation Zrotation
													JOINT LeftHandThumb4
													{
														OFFSET 1.692226 -0.977005 0.977007
														CHANNELS 3 Xrotation Yrotation Zrotation
														End Site
														{
															OFFSET 0.000000 0.000000 0.000000
														}
													}
												}
											}
										}
										JOINT LeftHandIndex1
										{
											OFFSET 7.924831 -0.457527 2.345128
											CHANNELS 3 Xrotation Yrotation Zrotation
											JOINT LeftHandIndex2
											{
												OFFSET 3.643303 0.000000 0.000000
												CHANNELS 3 Xrotation Yrotation Zrotation
												JOINT LeftHandIndex3
												{
													OFFSET 3.810799 0.000000 0.000000
													CHANNELS 3 Xrotation Yrotation Zrotation
													JOINT LeftHandIndex4
													{
														OFFSET 2.403702 0.000000 0.000000
														CHANNELS 3 Xrotation Yrotation Zrotation
														End Site
														{
															OFFSET 0.000000 0.000000 0.000000
														}
													}
												}
											}
										}
										JOINT LeftHandMiddle1
										{
											OFFSET 8.563995 0.000000 -0.000000
											CHANNELS 3 Xrotation Yrotation Zrotation
											JOINT LeftHandMiddle2
											{
												OFFSET 3.861618 0.000000 0.000000
												CHANNELS 3 Xrotation Yrotation Zrotation
												JOINT LeftHandMiddle3
												{
													OFFSET 3.701603 0.000000 0.000000
													CHANNELS 3 Xrotation Yrotation Zrotation
													JOINT LeftHandMiddle4
													{
														OFFSET 2.322544 0.000000 0.000000
														CHANNELS 3 Xrotation Yrotation Zrotation
														End Site
														{
															OFFSET 0.000000 0.000000 0.000000
														}
													}
												}
											}
										}
										JOINT LeftHandRing1
										{
											OFFSET 8.426460 -0.424637 -3.286992
											CHANNELS 3 Xrotation Yrotation Zrotation
											JOINT LeftHandRing2
											{
												OFFSET 3.126408 0.000000 0.000000
												CHANNELS 3 Xrotation Yrotation Zrotation
												JOINT LeftHandRing3
												{
													OFFSET 3.085026 0.000000 0.000000
													CHANNELS 3 Xrotation Yrotation Zrotation
													JOINT LeftHandRing4
													{
														OFFSET 1.644005 0.000000 0.000000
														CHANNELS 3 Xrotation Yrotation Zrotation
														End Site
														{
															OFFSET 0.000000 0.000000 0.000000
														}
													}
												}
											}
										}
									}
								}
							}
						}
					}
					JOINT RightShoulder
					{
						OFFSET -2.196100 4.412496 0.070690
						CHANNELS 3 Xrotation Yrotation Zrotation
						JOINT RightShoulder_split
						{
							OFFSET -2.196100 4.412496 0.070690
							CHANNELS 3 Xrotation Yrotation Zrotation
							JOINT RightArm
							{
								OFFSET -8.771282 -2.981682 -0.094208
								CHANNELS 3 Xrotation Yrotation Zrotation
								JOINT RightForeArm
								{
									OFFSET -8.494598 0.000000 0.000000
									CHANNELS 3 Xrotation Yrotation Zrotation
									JOINT RightHand
									{
										OFFSET -18.483803 0.000000 0.000001
										CHANNELS 3 Xrotation Yrotation Zrotation
										JOINT RightHandThumb1
										{
											OFFSET -2.527351 -1.008072 2.575253
											CHANNELS 3 Xrotation Yrotation Zrotation
											JOINT RightHandThumb2
											{
												OFFSET -2.321518 -1.340328 1.340329
												CHANNELS 3 Xrotation Yrotation Zrotation
												JOINT RightHandThumb3
												{
													OFFSET -2.657753 -1.534454 1.534455
													CHANNELS 3 Xrotation Yrotation Zrotation
													JOINT RightHandThumb4
													{
														OFFSET -1.807510 -1.043568 1.043567
														CHANNELS 3 Xrotation Yrotation Zrotation
														End Site
														{
															OFFSET 0.000000 0.000000 0.000000
														}
													}
												}
											}
										}
										JOINT RightHandIndex1
										{
											OFFSET -8.811420 0.015533 2.887987
											CHANNELS 3 Xrotation Yrotation Zrotation
											JOINT RightHandIndex2
											{
												OFFSET -3.537502 0.000000 0.000000
												CHANNELS 3 Xrotation Yrotation Zrotation
												JOINT RightHandIndex3
												{
													OFFSET -3.356201 0.000000 0.000000
													CHANNELS 3 Xrotation Yrotation Zrotation
													JOINT RightHandIndex4
													{
														OFFSET -1.933098 0.000000 0.000000
														CHANNELS 3 Xrotation Yrotation Zrotation
														End Site
														{
															OFFSET 0.000000 0.000000 0.000000
														}
													}
												}
											}
										}
										JOINT RightHandMiddle1
										{
											OFFSET -8.178135 0.000000 0.000000
											CHANNELS 3 Xrotation Yrotation Zrotation
											JOINT RightHandMiddle2
											{
												OFFSET -3.901302 0.000000 0.000000
												CHANNELS 3 Xrotation Yrotation Zrotation
												JOINT RightHandMiddle3
												{
													OFFSET -3.909599 0.000000 0.000000
													CHANNELS 3 Xrotation Yrotation Zrotation
													JOINT RightHandMiddle4
													{
														OFFSET -2.376003 0.000000 0.000000
														CHANNELS 3 Xrotation Yrotation Zrotation
														End Site
														{
															OFFSET 0.000000 0.000000 0.000000
														}
													}
												}
											}
										}
										JOINT RightHandRing1
										{
											OFFSET -7.559013 0.014137 -2.865403
											CHANNELS 3 Xrotation Yrotation Zrotation
											JOINT RightHandRing2
											{
												OFFSET -3.449306 0.000000 0.000000
												CHANNELS 3 Xrotation Yrotation Zrotation
												JOINT RightHandRing3
												{
													OFFSET -3.362106 0.000000 0.000000
													CHANNELS 3 Xrotation Yrotation Zrotation
													JOINT RightHandRing4
													{
														OFFSET -2.076401 0.000000 0.000000
														CHANNELS 3 Xrotation Yrotation Zrotation
														End Site
														{
															OFFSET 0.000000 0.000000 0.000000
														}
													}
												}
											}
										}
									}
								}
							}
						}
					}
				}
			}
		}
	}
	JOINT LeftUpLeg
	{
		OFFSET 10.205400 -3.823500 0.155100
		CHANNELS 3 Xrotation Yrotation Zrotation
		JOINT LeftLeg
		{
			OFFSET 0.708757 -12.982077 0.567790
			CHANNELS 3 Xrotation Yrotation Zrotation
			JOINT LeftFoot
			{
				OFFSET -0.708756 -10.717838 -2.184338
				CHANNELS 3 Xrotation Yrotation Zrotation
				JOINT LeftToeBase
				{
					OFFSET 0.108149 -7.191104 7.560241
					CHANNELS 3 Xrotation Yrotation Zrotation
					JOINT LeftToe_End
					{
						OFFSET 0.070230 0.081724 4.490308
						CHANNELS 3 Xrotation Yrotation Zrotation
						End Site
						{
							OFFSET 0.000000 0.000000 0.000000
						}
					}
				}
			}
		}
	}
	JOINT RightUpLeg
	{
		OFFSET -10.205400 -3.823500 0.005500
		CHANNELS 3 Xrotation Yrotation Zrotation
		JOINT RightLeg
		{
			OFFSET -0.708756 -12.982134 0.610632
			CHANNELS 3 Xrotation Yrotation Zrotation
			JOINT RightFoot
			{
				OFFSET 0.708754 -10.717769 -1.945823
				CHANNELS 3 Xrotation Yrotation Zrotation
				JOINT RightToeBase
				{
					OFFSET -0.108140 -7.191069 7.372968
					CHANNELS 3 Xrotation Yrotation Zrotation
					JOINT RightToe_End
					{
						OFFSET -0.070227 0.081735 4.479403
						CHANNELS 3 Xrotation Yrotation Zrotation
						End Site
						{
							OFFSET 0.000000 0.000000 0.000000
						}
					}
				}
			}
		}
	}
}
MOTION
Frames: 4
Frame Time: 0.016667
2.958574 74.453926 32.747303 6.082286 18.704676 0.606662 7.298563 -2.082082 -4.970811 14.411472 -2.597694 1.282298 0.000000 0.000000 0.000000 14.393234 -2.607811 1.534271 -3.431907 0.659721 -7.971155 -4.476602 -10.464172 13.497314 -0.000000 0.000000 0.000000 -1.645764 11.892282 6.117596 0.000000 0.000000 0.000000 -105.464452 -55.286642 -116.659085 -0.000274 -92.898947 -0.000249 -8.263615 -7.356832 2.186939 -3.500397 23.141892 9.972934 -2.408878 12.775498 10.381901 -3.572578 4.191490 6.966318 -0.000004 0.000002 -0.000004 0.080929 1.054713 -8.775060 0.139272 1.380645 -11.520107 0.034885 0.693822 -5.759227 0.000000 0.000000 -0.000001 0.080628 1.052809 -8.759071 0.139664 1.382533 -11.536108 0.034902 0.693835 -5.759215 0.000001 -0.000000 0.000000 0.080926 1.054719 -8.775061 0.139284 1.380632 -11.520110 0.034882 0.693821 -5.759226 0.000006 -0.000002 0.000001 2.075063 14.947594 1.840482 0.000000 0.000000 0.000000 -36.947321 40.337567 63.095047 -0.000025 48.043827 0.000032 31.938958 2.596833 0.748829 -7.605213 -2.521696 -16.077615 4.602794 -15.232215 -8.617242 -1.023798 -3.032507 -6.344388 0.000000 0.000000 0.000005 0.672574 -2.988266 25.363207 0.151855 -1.448121 11.972214 0.038051 -0.728030 5.985155 0.000000 0.000002 0.000000 0.672573 -2.988270 25.363216 0.151855 -1.448133 11.972213 0.038060 -0.728018 5.985153 0.000000 -0.000001 0.000001 0.672570 -2.988270 25.363207 0.151866 -1.448130 11.972211 0.038049 -0.728026 5.985150 0.000000 0.000000 0.000000 -23.153103 18.269602 13.919112 61.332134 -12.715474 -2.048501 -8.237634 3.264557 -18.577385 -0.000008 -0.000003 -0.000005 -0.000001 -0.000001 0.000004 -59.839991 6.236799 -20.176461 21.840431 7.073112 0.572892 24.798909 21.841217 26.278755 0.000002 -0.000006 -0.000000 -0.000000 0.000003 -0.000000 
3.030400 73.239868 33.761543 5.019193 18.479925 1.095582 7.340450 -1.911409 -4.997777 14.383878 -2.380561 1.213554 0.000000 0.000000 0.000000 14.364185 -2.405679 1.448310 -3.302239 0.547483 -7.776377 -3.709839 -10.667861 13.127589 -0.000001 -0.000000 -0.000000 -1.522756 11.317935 5.579438 0.000000 0.000000 0.000000 -102.529418 -55.782992 -113.588792 -0.000043 -91.991774 -0.000203 -9.879210 -6.284510 1.313736 -3.500374 23.141760 9.972894 -2.408831 12.775477 10.381844 -3.572541 4.191472 6.966305 -0.000002 0.000000 -0.000004 0.080930 1.054719 -8.774986 0.139272 1.380612 -11.520031 0.034894 0.693819 -5.759186 0.000003 0.000001 0.000002 0.080627 1.052817 -8.759001 0.139649 1.382514 -11.536031 0.034898 0.693822 -5.759175 0.000002 0.000000 -0.000000 0.080928 1.054723 -8.774978 0.139271 1.380613 -11.520046 0.034893 0.693830 -5.759178 0.000002 0.000000 -0.000000 2.084724 14.908501 1.923930 0.000000 0.000000 0.000000 -37.666133 40.172594 63.297740 0.000015 48.302698 -0.000035 32.519415 2.624570 1.993021 -7.604272 -2.522132 -16.076180 4.602791 -15.232176 -8.617172 -1.023796 -3.032471 -6.344376 0.000001 -0.000003 -0.000006 0.672567 -2.988251 25.363016 0.151859 -1.448115 11.972134 0.038067 -0.728016 5.985106 0.000002 0.000000 0.000000 0.672569 -2.988257 25.363021 0.151862 -1.448110 11.972137 0.038080 -0.728017 5.985106 -0.000002 -0.000001 0.000001 0.672567 -2.988260 25.363025 0.151863 -1.448102 11.972139 0.038072 -0.728024 5.985098 0.000001 0.000000 -0.000001 -23.147888 18.337605 13.540427 60.496290 -11.593501 -1.908651 -6.469697 2.782203 -18.722737 -0.000014 -0.000006 -0.000001 -0.000001 0.000001 0.000002 -57.809376 5.684467 -20.232320 22.139597 6.840311 0.693042 25.718259 22.540212 25.141728 0.000008 -0.000002 0.000005 -0.000000 0.000001 0.000000 
3.122421 71.900429 34.754471 3.932543 18.132064 1.562998 7.370563 -1.727257 -4.999705 14.331757 -2.196027 1.072491 0.000000 0.000000 0.000000 14.312125 -2.231721 1.291073 -3.139354 0.436491 -7.492979 -2.915437 -10.754765 12.844842 0.000004 -0.000000 -0.000000 -1.447301 10.959920 5.211199 0.000000 0.000000 0.000000 -99.827702 -56.207222 -110.766701 0.000527 -90.695828 0.000861 -11.177062 -5.296995 0.456584 -3.500332 23.141560 9.972849 -2.408775 12.775449 10.381731 -3.572512 4.191456 6.966258 -0.000004 -0.000002 -0.000006 0.080929 1.054702 -8.774898 0.139258 1.380615 -11.519915 0.034894 0.693811 -5.759123 0.000002 -0.000000 -0.000000 0.080632 1.052796 -8.758909 0.139647 1.382497 -11.535916 0.034898 0.693815 -5.759119 0.000002 0.000000 0.000000 0.080923 1.054702 -8.774896 0.139278 1.380616 -11.519918 0.034888 0.693810 -5.759120 0.000001 0.000001 0.000000 2.080142 14.739087 2.062846 0.000000 0.000000 0.000000 -38.227817 39.650959 63.883675 -0.000001 49.554395 0.000004 33.231770 2.131656 3.145250 -7.602985 -2.522631 -16.074130 4.602803 -15.232100 -8.617080 -1.023807 -3.032458 -6.344324 -0.000002 -0.000001 0.000002 0.672550 -2.988220 25.362763 0.151865 -1.448105 11.971991 0.038062 -0.728010 5.985064 -0.000000 -0.000002 0.000000 0.672552 -2.988216 25.362763 0.151860 -1.448102 11.971999 0.038057 -0.728018 5.985057 0.000001 -0.000000 0.000000 0.672556 -2.988221 25.362765 0.151862 -1.448099 11.971997 0.038067 -0.728010 5.985056 -0.000001 0.000002 -0.000000 -22.994510 18.334236 13.175864 59.337596 -10.908826 -1.788069 -4.913484 2.360101 -19.041912 -0.000008 -0.000002 -0.000003 -0.000004 -0.000002 0.000000 -55.796628 5.029040 -20.214310 22.804846 6.719445 0.833089 26.381971 22.666013 23.817910 -0.000001 -0.000002 -0.000002 -0.000000 0.000000 0.000001 
3.230953 70.445244 35.733891 2.861318 17.711775 1.978281 7.382224 -1.537570 -4.961429 14.253392 -2.029492 0.889716 0.000000 0.000000 0.000000 14.234352 -2.070371 1.095187 -2.973549 0.335320 -7.170162 -2.167500 -10.752426 12.661432 0.000002 -0.000000 0.000000 -1.416790 10.842150 5.015810 0.000000 0.000000 0.000000 -97.509270 -56.558498 -108.357898 -0.000111 -89.117877 0.000360 -12.155373 -4.424780 -0.433190 -3.500272 23.141366 9.972784 -2.408707 12.775393 10.381631 -3.572498 4.191430 6.966185 -0.000001 -0.000001 -0.000002 0.080927 1.054700 -8.774817 0.139263 1.380585 -11.519788 0.034896 0.693817 -5.759066 -0.000000 -0.000000 -0.000001 0.080634 1.052796 -8.758809 0.139635 1.382484 -11.535793 0.034902 0.693813 -5.759058 0.000004 -0.000001 -0.000000 0.080922 1.054706 -8.774820 0.139263 1.380584 -11.519794 0.034899 0.693809 -5.759056 -0.000001 0.000000 0.000000 2.065512 14.495188 2.197898 0.000000 0.000000 0.000000 -38.516393 38.803944 64.754920 -0.000007 51.747088 0.000002 34.057601 1.236711 4.088624 -7.601805 -2.522964 -16.072106 4.602803 -15.232037 -8.617003 -1.023811 -3.032413 -6.344267 0.000000 0.000005 -0.000002 0.672537 -2.988196 25.362499 0.151835 -1.448087 11.971903 0.038071 -0.727998 5.984986 -0.000002 -0.000001 -0.000000 0.672526 -2.988184 25.362504 0.151836 -1.448107 11.971895 0.038065 -0.727997 5.984990 0.000000 0.000001 -0.000000 0.672529 -2.988188 25.362504 0.151840 -1.448086 11.971899 0.038064 -0.728009 5.984981 -0.000000 -0.000004 0.000002 -22.765500 18.265813 12.804125 57.856360 -10.498908 -1.677626 -3.507068 1.983715 -19.506320 0.000002 -0.000002 -0.000019 -0.000000 0.000000 -0.000000 -53.779048 4.277812 -20.161347 23.802431 6.686651 0.987712 26.739605 22.238993 22.418781 0.000010 -0.000010 0.000001 -0.000001 0.000002 -0.000002 
